<svg xmlns="http://www.w3.org/2000/svg" viewBox="0 0 48 48" role="img" aria-label="waxon mark">
  <g fill="none" stroke="#083f2c" stroke-linecap="round" stroke-linejoin="round">
    <path stroke-width="4" d="M38.8 16.4A18 18 0 0 0 9.5 14" />
    <path stroke-width="4" d="M38.8 8.8v7.6h-7.6" />
    <path stroke-width="4" d="M9.2 31.6A18 18 0 0 0 38.5 34" />
    <path stroke-width="4" d="M9.2 39.2v-7.6h7.6" />
    <path
      stroke-width="3.6"
      d="M16.2 17.6 33 15.3a4 4 0 0 1 4.5 3.4l1.4 10.1a4 4 0 0 1-3.4 4.5l-16.8 2.3a4 4 0 0 1-4.5-3.4l-1.4-10.1a4 4 0 0 1 3.4-4.5Z"
    />
    <path stroke-width="3" d="m20 24.3 12.4-1.7" />
    <path stroke-width="3" d="m20.8 30.1 9.5-1.3" />
  </g>
</svg>
