<svg xmlns="http://www.w3.org/2000/svg" width="1600" height="950" viewBox="0 0 1600 950">
  <defs>
    <filter id="shellShadow" x="-10%" y="-10%" width="120%" height="130%">
      <feDropShadow dx="0" dy="16" stdDeviation="24" flood-color="#184233" flood-opacity="0.11"/>
    </filter>
    <style>
      .ui { font-family: "Red Hat Mono", "SFMono-Regular", Menlo, Monaco, Consolas, monospace; }
      .mono { font-family: "Red Hat Mono", "SFMono-Regular", Menlo, Monaco, Consolas, monospace; }
      .serif { font-family: "Bradford LL", "Iowan Old Style", Baskerville, Palatino, Georgia, serif; }
      .brand { fill: #5f4e41; font-weight: 760; letter-spacing: 0; }
      .ink { fill: #5d524b; }
      .soft { fill: #6d635b; }
      .muted { fill: #a89484; }
      .line { stroke: #e3dac4; }
      .line2 { stroke: #ede6d5; }
      .accent { fill: #a67c52; }
      .accentStroke { stroke: #a67c52; }
      .surface { fill: #fbf8f0; }
      .surfaceSoft { fill: #f7f1e3; }
      .activeSoft { fill: #f5eee0; }
      .danger { fill: #8c5462; }
      .tiny { font-size: 13px; }
      .small { font-size: 15px; }
      .body { font-size: 18px; }
      .title { font-size: 24px; font-weight: 650; }
      .label { font-size: 12px; text-transform: uppercase; letter-spacing: 0; font-weight: 650; }
      .chipText { font-size: 13px; font-weight: 620; }
    </style>
  </defs>

  <rect width="1600" height="950" fill="#fef9ed"/>
  <rect x="28" y="28" width="1544" height="894" rx="30" class="surface" filter="url(#shellShadow)" stroke="#e3dac4"/>

  <!-- Header -->
  <rect x="28" y="28" width="1544" height="84" rx="30" fill="#fbf8f0"/>
  <path d="M28 84 H1572" stroke="#e3dac4"/>
  <text x="78" y="76" class="ui brand" font-size="34">waxon</text>
  <text x="243" y="74" class="ui ink" font-size="19">Review</text>
  <text x="346" y="74" class="ui ink" font-size="19" font-weight="650">Decks</text>
  <rect x="336" y="105" width="64" height="4" rx="2" class="accent"/>

  <circle cx="1268" cy="70" r="18" fill="none" stroke="#ede6d5" stroke-width="5"/>
  <path d="M1268 52 A18 18 0 1 1 1254 81" fill="none" stroke="#a67c52" stroke-width="5" stroke-linecap="round"/>
  <text x="1298" y="77" class="ui ink" font-size="20" font-weight="650">149 due</text>
  <rect x="1430" y="47" width="48" height="44" rx="12" fill="#fbf8f0" stroke="#e3dac4"/>
  <circle cx="1446" cy="69" r="3" fill="#5d524b"/>
  <circle cx="1454" cy="69" r="3" fill="#5d524b"/>
  <circle cx="1462" cy="69" r="3" fill="#5d524b"/>

  <!-- Left deck management rail -->
  <rect x="58" y="142" width="315" height="742" rx="16" fill="#fbf8f0" stroke="#e3dac4"/>
  <text x="84" y="183" class="ui ink title">Decks</text>
  <rect x="326" y="154" width="32" height="32" rx="16" fill="#a67c52"/>
  <path d="M342 163 V177 M335 170 H349" stroke="#fff" stroke-width="2.2" stroke-linecap="round"/>
  <rect x="84" y="210" width="248" height="40" rx="10" fill="#fbf8f0" stroke="#e3dac4"/>
  <circle cx="105" cy="230" r="6" fill="none" stroke="#6d635b" stroke-width="1.8"/>
  <path d="M110 235 L116 241" stroke="#6d635b" stroke-width="1.8" stroke-linecap="round"/>
  <text x="128" y="236" class="ui muted small">Search decks</text>

  <g transform="translate(84 274)">
    <rect width="248" height="92" rx="10" class="activeSoft" stroke="#d6c3aa"/>
    <rect x="0" y="0" width="4" height="92" rx="2" class="accent"/>
    <text x="18" y="29" class="ui ink body" font-weight="650">ML Foundations</text>
    <text x="18" y="55" class="mono soft tiny">64 due / 312 cards</text>
    <text x="18" y="77" class="mono muted tiny">reviewed 12m ago</text>
    <rect x="190" y="20" width="38" height="22" rx="11" fill="#6b8e75"/>
    <circle cx="217" cy="31" r="8" fill="#fff"/>
    <path d="M195 65 L205 55 M205 55 L211 61" stroke="#6d635b" stroke-width="1.6" stroke-linecap="round"/>
    <path d="M223 55 L235 67 M235 55 L223 67" stroke="#8c5462" stroke-width="1.6" stroke-linecap="round"/>
  </g>

  <g transform="translate(84 380)">
    <rect width="248" height="78" rx="10" fill="#fbf8f0" stroke="#e3dac4"/>
    <text x="18" y="28" class="ui ink body" font-weight="620">Systems Design</text>
    <text x="18" y="53" class="mono soft tiny">41 due / 205 cards</text>
    <rect x="190" y="20" width="38" height="22" rx="11" fill="#6b8e75"/>
    <circle cx="217" cy="31" r="8" fill="#fff"/>
  </g>

  <g transform="translate(84 472)">
    <rect width="248" height="78" rx="10" fill="#fbf8f0" stroke="#e3dac4"/>
    <text x="18" y="28" class="ui ink body" font-weight="620">Math Review</text>
    <text x="18" y="53" class="mono soft tiny">44 due / 178 cards</text>
    <rect x="190" y="20" width="38" height="22" rx="11" fill="#6b8e75"/>
    <circle cx="217" cy="31" r="8" fill="#fff"/>
  </g>

  <g transform="translate(84 564)" opacity="0.62">
    <rect width="248" height="78" rx="10" fill="#fbf8f0" stroke="#e3dac4"/>
    <text x="18" y="28" class="ui ink body" font-weight="620">Research Papers</text>
    <text x="18" y="53" class="mono soft tiny">0 due / 96 cards</text>
    <rect x="190" y="20" width="38" height="22" rx="11" fill="#e3dac4"/>
    <circle cx="201" cy="31" r="8" fill="#fff"/>
  </g>

  <g transform="translate(84 696)">
    <text x="0" y="0" class="mono soft label">Deck actions</text>
    <rect x="0" y="20" width="114" height="38" rx="10" fill="#fbf8f0" stroke="#e3dac4"/>
    <path d="M22 30 V44 M15 37 H29" stroke="#a67c52" stroke-width="2" stroke-linecap="round"/>
    <text x="44" y="45" class="ui ink small">Create</text>
    <rect x="130" y="20" width="118" height="38" rx="10" fill="#fbf8f0" stroke="#e3dac4"/>
    <path d="M151 36 H167 M151 42 H162" stroke="#a67c52" stroke-width="2" stroke-linecap="round"/>
    <text x="181" y="45" class="ui ink small">Import</text>
  </g>

  <!-- Center selected deck queue -->
  <g transform="translate(405 142)">
    <text x="0" y="38" class="ui ink title">ML Foundations</text>
    <rect x="0" y="58" width="72" height="28" rx="14" fill="#f5eee0" stroke="#e3dac4"/>
    <text x="16" y="77" class="mono chipText" fill="#5f4e41">64 due</text>
    <rect x="84" y="58" width="92" height="28" rx="14" fill="#f7f1e3" stroke="#e3dac4"/>
    <text x="100" y="77" class="mono chipText soft">312 cards</text>
    <rect x="188" y="58" width="104" height="28" rx="14" fill="#f7f1e3" stroke="#e3dac4"/>
    <circle cx="208" cy="72" r="5" fill="#6b8e75"/>
    <text x="220" y="77" class="mono chipText soft">In rotation</text>
    <rect x="540" y="50" width="42" height="38" rx="10" fill="#fbf8f0" stroke="#e3dac4"/>
    <path d="M554 72 L569 57 L575 63 L560 78 H554 Z" fill="none" stroke="#6d635b" stroke-width="1.7"/>
    <rect x="594" y="50" width="42" height="38" rx="10" fill="#fbf8f0" stroke="#e3dac4"/>
    <path d="M606 61 H624 M610 61 V79 M620 61 V79 M606 79 H624" fill="none" stroke="#8c5462" stroke-width="1.6" stroke-linecap="round"/>

    <path d="M0 116 H670" stroke="#e3dac4"/>
    <text x="0" y="154" class="mono soft label">Due now</text>

    <g transform="translate(0 176)">
      <rect width="670" height="92" rx="10" fill="#fbf8f0" stroke="#dcc8ac"/>
      <circle cx="32" cy="46" r="17" fill="#fbf8f0" stroke="#cc653c" stroke-width="3" stroke-dasharray="3 5"/>
      <text x="66" y="32" class="serif ink" font-size="21">Why can data augmentation improve generalization?</text>
      <text x="66" y="60" class="ui soft small">Due 8m ago · last score 6/10 · new answer pending</text>
      <rect x="557" y="28" width="86" height="34" rx="8" fill="#fbf8f0" stroke="#e3dac4"/>
      <text x="575" y="50" class="ui ink small">Review</text>
    </g>

    <g transform="translate(0 284)">
      <rect width="670" height="84" rx="10" fill="#fbf8f0" stroke="#e3dac4"/>
      <circle cx="32" cy="42" r="17" fill="#fbf8f0" stroke="#6b8e75" stroke-width="2.4"/>
      <text x="22" y="47" class="mono" font-size="12" fill="#6b8e75" font-weight="700">8/10</text>
      <text x="66" y="31" class="serif ink" font-size="20">Explain bias-variance tradeoff under regularization.</text>
      <text x="66" y="58" class="ui soft small">Due now · last reviewed 2d ago · ML Foundations</text>
      <text x="596" y="48" class="mono muted tiny">#2</text>
    </g>

    <text x="0" y="410" class="mono soft label">Later today</text>
    <g transform="translate(0 432)">
      <rect width="670" height="84" rx="10" fill="#fbf8f0" stroke="#e3dac4"/>
      <circle cx="32" cy="42" r="17" fill="#fbf8f0" stroke="#a89484" stroke-width="2"/>
      <text x="66" y="31" class="serif ink" font-size="20">When does batch normalization leak validation signal?</text>
      <text x="66" y="58" class="ui soft small">Due in 3h · source: validation protocols</text>
      <rect x="552" y="25" width="92" height="34" rx="8" fill="#f7f1e3" stroke="#e3dac4"/>
      <text x="570" y="47" class="ui soft small">Details</text>
    </g>

    <g transform="translate(0 530)">
      <rect width="670" height="84" rx="10" fill="#fbf8f0" stroke="#e3dac4"/>
      <circle cx="32" cy="42" r="17" fill="#fbf8f0" stroke="#a89484" stroke-width="2"/>
      <text x="66" y="31" class="serif ink" font-size="20">Describe invariances learned by convolutional models.</text>
      <text x="66" y="58" class="ui soft small">Due in 5h · deck: ML Foundations</text>
      <text x="596" y="48" class="mono muted tiny">#7</text>
    </g>

    <path d="M0 658 H670" stroke="#e3dac4"/>
  </g>

  <!-- Right review rotation panel -->
  <rect x="1112" y="142" width="420" height="742" rx="16" fill="#fbf8f0" stroke="#e3dac4"/>
  <text x="1142" y="183" class="ui ink title">Review rotation</text>
  <text x="1142" y="212" class="mono soft small">3 decks active · ordered by due priority</text>

  <g transform="translate(1142 246)">
    <rect width="360" height="58" rx="10" fill="#f5eee0" stroke="#d6c3aa"/>
    <circle cx="24" cy="29" r="7" fill="#a67c52"/>
    <text x="44" y="26" class="ui ink small" font-weight="650">ML Foundations</text>
    <text x="44" y="45" class="mono soft tiny">64 due · weight normal</text>
    <rect x="304" y="18" width="38" height="22" rx="11" fill="#6b8e75"/>
    <circle cx="331" cy="29" r="8" fill="#fff"/>
  </g>

  <g transform="translate(1142 316)">
    <rect width="360" height="58" rx="10" fill="#fbf8f0" stroke="#e3dac4"/>
    <circle cx="24" cy="29" r="7" fill="#6d635b"/>
    <text x="44" y="26" class="ui ink small" font-weight="650">Systems Design</text>
    <text x="44" y="45" class="mono soft tiny">41 due · priority high</text>
    <rect x="304" y="18" width="38" height="22" rx="11" fill="#6b8e75"/>
    <circle cx="331" cy="29" r="8" fill="#fff"/>
  </g>

  <g transform="translate(1142 386)">
    <rect width="360" height="58" rx="10" fill="#fbf8f0" stroke="#e3dac4"/>
    <circle cx="24" cy="29" r="7" fill="#a89484"/>
    <text x="44" y="26" class="ui ink small" font-weight="650">Math Review</text>
    <text x="44" y="45" class="mono soft tiny">44 due · weight normal</text>
    <rect x="304" y="18" width="38" height="22" rx="11" fill="#6b8e75"/>
    <circle cx="331" cy="29" r="8" fill="#fff"/>
  </g>

  <g transform="translate(1142 456)" opacity="0.62">
    <rect width="360" height="58" rx="10" fill="#fbf8f0" stroke="#e3dac4"/>
    <circle cx="24" cy="29" r="7" fill="#9a9a9a"/>
    <text x="44" y="26" class="ui ink small" font-weight="650">Research Papers</text>
    <text x="44" y="45" class="mono soft tiny">not in rotation</text>
    <rect x="304" y="18" width="38" height="22" rx="11" fill="#e3dac4"/>
    <circle cx="315" cy="29" r="8" fill="#fff"/>
  </g>

  <path d="M1142 550 H1502" stroke="#e3dac4"/>
  <text x="1142" y="590" class="mono soft label">Upcoming review order</text>

  <g transform="translate(1142 616)">
    <text x="0" y="20" class="mono muted tiny">01</text>
    <circle cx="42" cy="15" r="6" fill="#6d635b"/>
    <text x="60" y="20" class="ui ink small">Backoff strategy</text>
    <text x="324" y="20" class="mono soft tiny">now</text>
    <path d="M0 42 H360" stroke="#ece6dc"/>
  </g>
  <g transform="translate(1142 668)">
    <text x="0" y="20" class="mono muted tiny">02</text>
    <circle cx="42" cy="15" r="6" fill="#a67c52"/>
    <text x="60" y="20" class="ui ink small">Augmentation invariance</text>
    <text x="328" y="20" class="mono soft tiny">8m</text>
    <path d="M0 42 H360" stroke="#ece6dc"/>
  </g>
  <g transform="translate(1142 720)">
    <text x="0" y="20" class="mono muted tiny">03</text>
    <circle cx="42" cy="15" r="6" fill="#a89484"/>
    <text x="60" y="20" class="ui ink small">Covariance eigenvalues</text>
    <text x="320" y="20" class="mono soft tiny">18m</text>
    <path d="M0 42 H360" stroke="#ece6dc"/>
  </g>

  <rect x="1142" y="804" width="292" height="48" rx="24" fill="#a67c52"/>
  <text x="1237" y="835" class="ui" font-size="17" fill="#fff" font-weight="700">Start review</text>
  <rect x="1450" y="804" width="52" height="48" rx="14" fill="#fbf8f0" stroke="#e3dac4"/>
  <circle cx="1476" cy="828" r="10" fill="none" stroke="#6d635b" stroke-width="2"/>
  <path d="M1476 812 V818 M1476 838 V844 M1460 828 H1466 M1486 828 H1492" stroke="#6d635b" stroke-width="2" stroke-linecap="round"/>
</svg>
