<svg xmlns="http://www.w3.org/2000/svg" width="1600" height="950" viewBox="0 0 1600 950">
  <defs>
    <filter id="shadow" x="-10%" y="-10%" width="120%" height="130%">
      <feDropShadow dx="0" dy="30" stdDeviation="36" flood-color="#2a1816" flood-opacity="0.10"/>
    </filter>
    <style>
      .question { font-family: "Bradford LL", "Iowan Old Style", Baskerville, "Palatino Linotype", Georgia, serif; }
      .ui { font-family: "Red Hat Mono", "SFMono-Regular", Menlo, Monaco, Consolas, monospace; }
      .ink { fill: #5d524b; }
      .ink-soft { fill: #6d635b; }
      .muted { fill: #a89484; }
      .accent { fill: #a67c52; }
      .success { fill: #6b8e75; }
      .danger { stroke: #8c5462; }
      .line { stroke: #e3dac4; }
      .surface { fill: #fbf8f0; }
      .surface-soft { fill: #f7f1e3; }
      .accent-soft { fill: #f5eee0; }
      .label { font-size: 12px; font-weight: 720; }
      .small { font-size: 13px; font-weight: 650; }
      .body { font-size: 15px; font-weight: 700; }
      .title { font-size: 17px; font-weight: 720; }
    </style>
  </defs>

  <rect width="1600" height="950" fill="#fef9ed"/>
  <rect width="1600" height="950" fill="url(#bgFade)" opacity="0"/>
  <circle cx="1248" cy="40" r="320" fill="#a67c52" opacity="0.055"/>

  <rect x="48" y="28" width="1504" height="894" rx="28" class="surface" opacity="0.82" filter="url(#shadow)" stroke="#e3dac4" stroke-opacity="0.76"/>

  <g transform="translate(48 28)">
    <rect width="1504" height="72" rx="28" fill="#fbf8f0" opacity="0.72"/>
    <path d="M0 72 H1504" stroke="#e3dac4" stroke-opacity="0.72"/>
    <text x="62" y="47" class="question ink" font-size="31" font-weight="850">waxon</text>
    <text x="244" y="46" class="ui ink-soft" font-size="18" font-weight="760">Review</text>
    <text x="352" y="46" class="ui ink" font-size="18" font-weight="760">Decks</text>
    <rect x="352" y="69" width="54" height="3" rx="2" class="accent"/>

    <circle cx="1256" cy="36" r="11" fill="none" stroke="#e3dac4" stroke-width="4"/>
    <path d="M1256 25 A11 11 0 1 1 1248 45" fill="none" stroke="#a67c52" stroke-width="4" stroke-linecap="round"/>
    <text x="1279" y="43" class="ui ink-soft" font-size="18" font-weight="780">149 due</text>
    <rect x="1416" y="15" width="42" height="42" rx="21" fill="#fff" fill-opacity="0.72" stroke="#e3dac4" stroke-opacity="0.86"/>
    <circle cx="1428" cy="36" r="2.7" fill="#6d635b"/>
    <circle cx="1437" cy="36" r="2.7" fill="#6d635b"/>
    <circle cx="1446" cy="36" r="2.7" fill="#6d635b"/>
  </g>

  <g transform="translate(240 150)">
    <g transform="translate(0 0)">
      <text x="0" y="21" class="ui ink title">Decks</text>
      <rect x="78" y="-8" width="38" height="38" rx="8" fill="#fbf8f0" fill-opacity="0.82" stroke="#e3dac4" stroke-opacity="0.78"/>
      <path d="M97 3 V19 M89 11 H105" stroke="#a67c52" stroke-width="2.3" stroke-linecap="round"/>

      <rect x="612" y="-8" width="260" height="38" rx="8" fill="#fbf8f0" fill-opacity="0.82" stroke="#e3dac4" stroke-opacity="0.78"/>
      <circle cx="634" cy="11" r="7" fill="none" stroke="#a89484" stroke-width="1.8"/>
      <path d="M640 17 L648 25" stroke="#a89484" stroke-width="1.8" stroke-linecap="round"/>
      <text x="662" y="17" class="ui muted" font-size="13" font-weight="650">Search decks</text>

      <text x="904" y="16" class="ui muted" font-size="13" font-weight="720">Sort</text>
      <rect x="946" y="-8" width="134" height="38" rx="8" fill="#fbf8f0" fill-opacity="0.82" stroke="#e3dac4" stroke-opacity="0.78"/>
      <text x="962" y="17" class="ui ink-soft" font-size="13" font-weight="760">Due first</text>
      <path d="M1058 8 L1064 14 L1070 8" fill="none" stroke="#a67c52" stroke-width="1.8" stroke-linecap="round" stroke-linejoin="round"/>
    </g>

    <path d="M0 72 H1080" stroke="#e3dac4"/>

    <g transform="translate(0 100)">
      <text x="0" y="0" class="ui muted label">Deck</text>
      <text x="486" y="0" class="ui muted label">Due</text>
      <text x="585" y="0" class="ui muted label">Cards</text>
      <text x="690" y="0" class="ui muted label">Reviewed</text>
      <text x="875" y="0" class="ui muted label">Rotation</text>
    </g>

    <g transform="translate(0 124)">
      <rect width="1080" height="78" rx="8" fill="#f5eee0" stroke="#a67c52" stroke-opacity="0.30"/>
      <rect width="3" height="78" rx="2" class="accent"/>
      <rect x="18" y="21" width="36" height="36" rx="18" fill="#fbf8f0" stroke="#e3dac4"/>
      <path d="M29 31 H43 M29 37 H43 M29 43 H38" stroke="#a67c52" stroke-width="1.8" stroke-linecap="round"/>
      <text x="72" y="33" class="question ink" font-size="20" font-weight="600">ML Foundations</text>
      <text x="72" y="56" class="ui muted small">foundation cards · generated May 28</text>
      <rect x="476" y="24" width="54" height="28" rx="14" fill="#d7e6d6"/>
      <text x="493" y="43" class="ui" font-size="12" font-weight="760" fill="#6b8e75">63</text>
      <text x="590" y="43" class="ui ink-soft" font-size="13" font-weight="720">512</text>
      <text x="690" y="43" class="ui ink-soft" font-size="13" font-weight="650">Today, 9:41</text>
      <rect x="882" y="27" width="38" height="22" rx="11" fill="#6b8e75"/>
      <circle cx="909" cy="38" r="8" fill="#ffffff"/>
      <g transform="translate(950 20)">
        <rect width="38" height="38" rx="8" fill="#fbf8f0" stroke="#e3dac4"/>
        <path d="M13 25 L25 13 M22 10 L28 16 M12 26 L11 29 L14 28" fill="none" stroke="#a67c52" stroke-width="1.8" stroke-linecap="round" stroke-linejoin="round"/>
      </g>
      <g transform="translate(998 20)">
        <rect width="38" height="38" rx="8" fill="#fbf8f0" stroke="#e3dac4"/>
        <path d="M14 13 H24 M12 18 H26 M14 23 H21" stroke="#6d635b" stroke-width="1.8" stroke-linecap="round"/>
      </g>
      <g transform="translate(1046 20)">
        <rect width="34" height="38" rx="8" fill="#fbf8f0" stroke="#e3dac4"/>
        <path d="M11 15 H23 M14 15 V27 M20 15 V27 M12 27 H22 M14 11 H20" class="danger" fill="none" stroke-width="1.6" stroke-linecap="round"/>
      </g>
    </g>

    <g transform="translate(0 212)">
      <rect width="1080" height="78" rx="8" fill="#fbf8f0" fill-opacity="0.72" stroke="#e3dac4" stroke-opacity="0.74"/>
      <rect x="18" y="21" width="36" height="36" rx="18" fill="#fbf8f0" stroke="#e3dac4"/>
      <path d="M29 31 H43 M29 37 H43 M29 43 H38" stroke="#a67c52" stroke-width="1.8" stroke-linecap="round"/>
      <text x="72" y="33" class="question ink" font-size="20" font-weight="600">Systems Design</text>
      <text x="72" y="56" class="ui muted small">architecture and tradeoff prompts</text>
      <rect x="476" y="24" width="54" height="28" rx="14" fill="#d7e6d6"/>
      <text x="493" y="43" class="ui" font-size="12" font-weight="760" fill="#6b8e75">34</text>
      <text x="590" y="43" class="ui ink-soft" font-size="13" font-weight="720">278</text>
      <text x="690" y="43" class="ui ink-soft" font-size="13" font-weight="650">Today, 8:17</text>
      <rect x="882" y="27" width="38" height="22" rx="11" fill="#6b8e75"/>
      <circle cx="909" cy="38" r="8" fill="#ffffff"/>
      <g transform="translate(950 20)">
        <rect width="38" height="38" rx="8" fill="#fbf8f0" stroke="#e3dac4"/>
        <path d="M13 25 L25 13 M22 10 L28 16 M12 26 L11 29 L14 28" fill="none" stroke="#a67c52" stroke-width="1.8" stroke-linecap="round" stroke-linejoin="round"/>
      </g>
      <g transform="translate(998 20)">
        <rect width="38" height="38" rx="8" fill="#fbf8f0" stroke="#e3dac4"/>
        <path d="M14 13 H24 M12 18 H26 M14 23 H21" stroke="#6d635b" stroke-width="1.8" stroke-linecap="round"/>
      </g>
      <g transform="translate(1046 20)">
        <rect width="34" height="38" rx="8" fill="#fbf8f0" stroke="#e3dac4"/>
        <path d="M11 15 H23 M14 15 V27 M20 15 V27 M12 27 H22 M14 11 H20" class="danger" fill="none" stroke-width="1.6" stroke-linecap="round"/>
      </g>
    </g>

    <g transform="translate(0 300)">
      <rect width="1080" height="78" rx="8" fill="#fbf8f0" fill-opacity="0.72" stroke="#e3dac4" stroke-opacity="0.74"/>
      <rect x="18" y="21" width="36" height="36" rx="18" fill="#fbf8f0" stroke="#e3dac4"/>
      <path d="M29 31 H43 M29 37 H43 M29 43 H38" stroke="#a67c52" stroke-width="1.8" stroke-linecap="round"/>
      <text x="72" y="33" class="question ink" font-size="20" font-weight="600">Math Review</text>
      <text x="72" y="56" class="ui muted small">linear algebra, calculus, probability</text>
      <rect x="476" y="24" width="54" height="28" rx="14" fill="#d7e6d6"/>
      <text x="493" y="43" class="ui" font-size="12" font-weight="760" fill="#6b8e75">21</text>
      <text x="590" y="43" class="ui ink-soft" font-size="13" font-weight="720">196</text>
      <text x="690" y="43" class="ui ink-soft" font-size="13" font-weight="650">Yesterday</text>
      <rect x="882" y="27" width="38" height="22" rx="11" fill="#6b8e75"/>
      <circle cx="909" cy="38" r="8" fill="#ffffff"/>
      <g transform="translate(950 20)">
        <rect width="38" height="38" rx="8" fill="#fbf8f0" stroke="#e3dac4"/>
        <path d="M13 25 L25 13 M22 10 L28 16 M12 26 L11 29 L14 28" fill="none" stroke="#a67c52" stroke-width="1.8" stroke-linecap="round" stroke-linejoin="round"/>
      </g>
      <g transform="translate(998 20)">
        <rect width="38" height="38" rx="8" fill="#fbf8f0" stroke="#e3dac4"/>
        <path d="M14 13 H24 M12 18 H26 M14 23 H21" stroke="#6d635b" stroke-width="1.8" stroke-linecap="round"/>
      </g>
      <g transform="translate(1046 20)">
        <rect width="34" height="38" rx="8" fill="#fbf8f0" stroke="#e3dac4"/>
        <path d="M11 15 H23 M14 15 V27 M20 15 V27 M12 27 H22 M14 11 H20" class="danger" fill="none" stroke-width="1.6" stroke-linecap="round"/>
      </g>
    </g>

    <g transform="translate(0 388)" opacity="0.72">
      <rect width="1080" height="78" rx="8" fill="#fbf8f0" fill-opacity="0.72" stroke="#e3dac4" stroke-opacity="0.74"/>
      <rect x="18" y="21" width="36" height="36" rx="18" fill="#fbf8f0" stroke="#e3dac4"/>
      <path d="M29 31 H43 M29 37 H43 M29 43 H38" stroke="#a67c52" stroke-width="1.8" stroke-linecap="round"/>
      <text x="72" y="33" class="question ink" font-size="20" font-weight="600">Research Papers</text>
      <text x="72" y="56" class="ui muted small">paper notes and experimental setup cards</text>
      <rect x="476" y="24" width="54" height="28" rx="14" fill="#f5eee0"/>
      <text x="493" y="43" class="ui ink-soft" font-size="12" font-weight="760">18</text>
      <text x="590" y="43" class="ui ink-soft" font-size="13" font-weight="720">142</text>
      <text x="690" y="43" class="ui ink-soft" font-size="13" font-weight="650">Yesterday</text>
      <rect x="882" y="27" width="38" height="22" rx="11" fill="#e3dac4"/>
      <circle cx="893" cy="38" r="8" fill="#ffffff"/>
      <g transform="translate(950 20)">
        <rect width="38" height="38" rx="8" fill="#fbf8f0" stroke="#e3dac4"/>
        <path d="M13 25 L25 13 M22 10 L28 16 M12 26 L11 29 L14 28" fill="none" stroke="#a67c52" stroke-width="1.8" stroke-linecap="round" stroke-linejoin="round"/>
      </g>
      <g transform="translate(998 20)">
        <rect width="38" height="38" rx="8" fill="#fbf8f0" stroke="#e3dac4"/>
        <path d="M14 13 H24 M12 18 H26 M14 23 H21" stroke="#6d635b" stroke-width="1.8" stroke-linecap="round"/>
      </g>
      <g transform="translate(1046 20)">
        <rect width="34" height="38" rx="8" fill="#fbf8f0" stroke="#e3dac4"/>
        <path d="M11 15 H23 M14 15 V27 M20 15 V27 M12 27 H22 M14 11 H20" class="danger" fill="none" stroke-width="1.6" stroke-linecap="round"/>
      </g>
    </g>

    <g transform="translate(0 510)">
      <path d="M0 0 H1080" stroke="#e3dac4"/>
      <rect x="0" y="24" width="122" height="38" rx="8" fill="#fbf8f0" fill-opacity="0.82" stroke="#e3dac4" stroke-opacity="0.78"/>
      <path d="M20 35 V51 M12 43 H28" stroke="#a67c52" stroke-width="2.1" stroke-linecap="round"/>
      <text x="44" y="48" class="ui ink" font-size="13" font-weight="760">Create deck</text>
      <text x="922" y="48" class="ui muted" font-size="13" font-weight="650">4 in rotation</text>
    </g>
  </g>
</svg>
